<svg width="512" height="512" viewBox="0 0 200 200" fill="none" xmlns="http://www.w3.org/2000/svg">
      <g transform="translate(20, 20)">
        <path d="M 65 120 L 60 145 L 55 160" stroke="#000000" stroke-width="6" stroke-linecap="round" stroke-linejoin="round" fill="none"/>
        <path d="M 85 120 L 95 140 L 105 155" stroke="#000000" stroke-width="6" stroke-linecap="round" stroke-linejoin="round" fill="none"/>
        <rect x="50" y="70" width="50" height="55" rx="8" fill="#000000" stroke="#000000" stroke-width="3"/>
        <path d="M 65 85 L 75 105 L 85 85" stroke="white" stroke-width="4" fill="none"/>
        <path d="M 50 85 L 30 95 L 25 100" stroke="#000000" stroke-width="6" stroke-linecap="round" stroke-linejoin="round" fill="none"/>
        <path d="M 100 85 L 115 80 L 125 75" stroke="#000000" stroke-width="6" stroke-linecap="round" stroke-linejoin="round" fill="none"/>
        <circle cx="25" cy="100" r="5" fill="#000000"/>
        <circle cx="125" cy="75" r="5" fill="#000000"/>
        <rect x="35" y="15" width="80" height="60" rx="12" fill="none" stroke="#000000" stroke-width="4"/>
        <rect x="30" y="18" width="80" height="60" rx="12" fill="none" stroke="#000000" stroke-width="4"/>
        <rect x="38" y="23" width="65" height="48" rx="8" fill="#000000"/>
        <circle cx="55" cy="38" r="6" fill="white"/>
        <circle cx="80" cy="38" r="6" fill="white"/>
        <path d="M 52 50 Q 67.5 60 83 50" stroke="white" stroke-width="5" stroke-linecap="round" fill="none" opacity="0.3" filter="blur(3px)"/>
        <path d="M 52 50 Q 67.5 60 83 50" stroke="white" stroke-width="4" stroke-linecap="round" fill="none"/>
        <circle cx="92" cy="68" r="1.5" fill="white" opacity="0.6"/>
        <circle cx="97" cy="68" r="1.5" fill="white" opacity="0.6"/>
        <rect x="65" y="72" width="20" height="6" rx="3" fill="#000000"/>
      </g>
    </svg>